<svg width="179" height="37" viewBox="0 0 179 37" fill="none" xmlns="http://www.w3.org/2000/svg">
<g clip-path="url(#clip0_10223_871)">
<path d="M21 1H14V11.5553C13.9705 13.463 12.4149 15 10.5004 15H0V22H7.6005C9.457 22 11.2375 21.2625 12.5502 19.9498L18.9498 13.5502C20.2625 12.2375 21 10.457 21 8.6005V1Z" fill="url(#paint0_linear_10223_871)"/>
<path d="M14 36H21V25.4447C21.0295 23.537 22.5851 22 24.4996 22H35V15H27.3995C25.543 15 23.7625 15.7375 22.4498 17.0502L16.0502 23.4498C14.7375 24.7625 14 26.543 14 28.3995V36Z" fill="url(#paint1_linear_10223_871)"/>
<path d="M57.56 27.615H50V10.115H57.56C58.8733 10.115 60.0733 10.3317 61.16 10.765C62.24 11.1983 63.18 11.8017 63.98 12.575C64.78 13.355 65.3967 14.275 65.83 15.335C66.2633 16.4017 66.48 17.5783 66.48 18.865C66.48 20.1317 66.2633 21.3017 65.83 22.375C65.3967 23.455 64.78 24.3817 63.98 25.155C63.18 25.9283 62.24 26.5317 61.16 26.965C60.0733 27.3983 58.8733 27.615 57.56 27.615ZM54.96 13.315V24.465L54.18 23.335H57.43C58.05 23.335 58.6033 23.2283 59.09 23.015C59.5833 22.795 60.0067 22.4917 60.36 22.105C60.7067 21.7117 60.98 21.2383 61.18 20.685C61.38 20.1383 61.48 19.5317 61.48 18.865C61.48 18.1983 61.38 17.5883 61.18 17.035C60.98 16.4883 60.7 16.0183 60.34 15.625C59.9867 15.2317 59.5667 14.9283 59.08 14.715C58.6 14.495 58.05 14.385 57.43 14.385H54.11L54.96 13.315ZM73.01 27.885C72.01 27.885 71.16 27.675 70.46 27.255C69.76 26.8283 69.2267 26.215 68.86 25.415C68.4933 24.615 68.31 23.6483 68.31 22.515V14.285H72.96V22.045C72.96 22.4717 73.0333 22.835 73.18 23.135C73.3333 23.435 73.5433 23.665 73.81 23.825C74.0767 23.985 74.4 24.065 74.78 24.065C75.08 24.065 75.35 24.0217 75.59 23.935C75.8367 23.855 76.0433 23.7283 76.21 23.555C76.3767 23.3817 76.51 23.1817 76.61 22.955C76.71 22.7283 76.76 22.4817 76.76 22.215V14.285H81.41V27.615H77.11L76.86 24.915L77.73 24.615C77.55 25.235 77.2267 25.795 76.76 26.295C76.2933 26.795 75.7333 27.185 75.08 27.465C74.4333 27.745 73.7433 27.885 73.01 27.885ZM90.63 27.865C89.2167 27.865 87.95 27.565 86.83 26.965C85.7167 26.365 84.8433 25.5483 84.21 24.515C83.5767 23.4817 83.26 22.2883 83.26 20.935C83.26 19.5883 83.5767 18.3983 84.21 17.365C84.8433 16.3317 85.7167 15.515 86.83 14.915C87.95 14.315 89.2167 14.015 90.63 14.015C92.05 14.015 93.3133 14.315 94.42 14.915C95.5267 15.515 96.3967 16.3317 97.03 17.365C97.6633 18.3983 97.98 19.5883 97.98 20.935C97.98 22.2883 97.6633 23.4817 97.03 24.515C96.3967 25.5483 95.5267 26.365 94.42 26.965C93.3133 27.565 92.05 27.865 90.63 27.865ZM90.63 23.935C91.13 23.935 91.5833 23.8083 91.99 23.555C92.4033 23.295 92.72 22.935 92.94 22.475C93.1667 22.0217 93.28 21.5083 93.28 20.935C93.28 20.3417 93.1667 19.8183 92.94 19.365C92.72 18.9117 92.4033 18.5583 91.99 18.305C91.5833 18.045 91.13 17.915 90.63 17.915C90.1167 17.915 89.66 18.045 89.26 18.305C88.86 18.5583 88.5433 18.915 88.31 19.375C88.0767 19.835 87.96 20.355 87.96 20.935C87.96 21.5083 88.0767 22.0217 88.31 22.475C88.5433 22.935 88.86 23.295 89.26 23.555C89.66 23.8083 90.1167 23.935 90.63 23.935ZM106.08 27.865C104.833 27.865 103.72 27.7217 102.74 27.435C101.767 27.155 100.91 26.7483 100.17 26.215C99.43 25.6817 98.7667 25.055 98.18 24.335L101.08 21.065C101.913 22.145 102.773 22.865 103.66 23.225C104.54 23.585 105.397 23.765 106.23 23.765C106.597 23.765 106.93 23.7283 107.23 23.655C107.53 23.5817 107.76 23.455 107.92 23.275C108.08 23.1017 108.16 22.8817 108.16 22.615C108.16 22.3817 108.093 22.1817 107.96 22.015C107.827 21.8483 107.643 21.7017 107.41 21.575C107.177 21.4483 106.917 21.3383 106.63 21.245C106.35 21.1383 106.067 21.0583 105.78 21.005C105.5 20.945 105.227 20.8817 104.96 20.815C103.973 20.6017 103.113 20.3283 102.38 19.995C101.647 19.6617 101.033 19.265 100.54 18.805C100.053 18.345 99.6867 17.815 99.44 17.215C99.2 16.615 99.08 15.9383 99.08 15.185C99.08 14.3717 99.2733 13.6217 99.66 12.935C100.04 12.255 100.547 11.6683 101.18 11.175C101.813 10.6817 102.543 10.3083 103.37 10.055C104.197 9.79499 105.06 9.66499 105.96 9.66499C107.193 9.66499 108.243 9.78499 109.11 10.025C109.977 10.265 110.703 10.6117 111.29 11.065C111.883 11.5183 112.397 12.0417 112.83 12.635L109.88 15.495C109.533 15.1083 109.153 14.7883 108.74 14.535C108.333 14.2883 107.913 14.1017 107.48 13.975C107.047 13.8483 106.607 13.785 106.16 13.785C105.74 13.785 105.377 13.8283 105.07 13.915C104.763 13.995 104.527 14.115 104.36 14.275C104.193 14.435 104.11 14.6483 104.11 14.915C104.11 15.1483 104.2 15.3517 104.38 15.525C104.567 15.6983 104.8 15.845 105.08 15.965C105.367 16.0783 105.67 16.175 105.99 16.255C106.317 16.3283 106.613 16.3883 106.88 16.435C107.8 16.6217 108.637 16.8617 109.39 17.155C110.15 17.4417 110.813 17.8083 111.38 18.255C111.947 18.695 112.38 19.2317 112.68 19.865C112.98 20.4983 113.13 21.2383 113.13 22.085C113.13 23.3383 112.817 24.395 112.19 25.255C111.57 26.115 110.73 26.765 109.67 27.205C108.61 27.645 107.413 27.865 106.08 27.865ZM114.96 27.615V9.11499H119.51V16.995L118.56 17.285C118.727 16.6517 119.05 16.0917 119.53 15.605C120.017 15.1117 120.593 14.7217 121.26 14.435C121.927 14.155 122.627 14.015 123.36 14.015C124.36 14.015 125.203 14.2183 125.89 14.625C126.583 15.0383 127.11 15.6483 127.47 16.455C127.83 17.2617 128.01 18.2483 128.01 19.415V27.615H123.36V19.795C123.36 19.3617 123.293 18.9983 123.16 18.705C123.027 18.4117 122.827 18.1883 122.56 18.035C122.293 17.8883 121.977 17.8217 121.61 17.835C121.323 17.835 121.06 17.8783 120.82 17.965C120.58 18.045 120.367 18.175 120.18 18.355C120 18.5283 119.863 18.7217 119.77 18.935C119.677 19.155 119.63 19.3983 119.63 19.665V27.615H117.31C116.743 27.615 116.263 27.615 115.87 27.615C115.477 27.615 115.173 27.615 114.96 27.615ZM136.96 27.865C135.54 27.865 134.273 27.565 133.16 26.965C132.04 26.365 131.163 25.5483 130.53 24.515C129.897 23.4817 129.58 22.2883 129.58 20.935C129.58 19.5883 129.897 18.3983 130.53 17.365C131.163 16.3317 132.04 15.515 133.16 14.915C134.273 14.315 135.54 14.015 136.96 14.015C138.373 14.015 139.633 14.315 140.74 14.915C141.853 15.515 142.727 16.3317 143.36 17.365C143.993 18.3983 144.31 19.5883 144.31 20.935C144.31 22.2883 143.993 23.4817 143.36 24.515C142.727 25.5483 141.853 26.365 140.74 26.965C139.633 27.565 138.373 27.865 136.96 27.865ZM136.96 23.935C137.46 23.935 137.913 23.8083 138.32 23.555C138.727 23.295 139.043 22.935 139.27 22.475C139.497 22.0217 139.61 21.5083 139.61 20.935C139.61 20.3417 139.497 19.8183 139.27 19.365C139.043 18.9117 138.727 18.5583 138.32 18.305C137.913 18.045 137.46 17.915 136.96 17.915C136.44 17.915 135.98 18.045 135.58 18.305C135.18 18.5583 134.863 18.915 134.63 19.375C134.397 19.835 134.28 20.355 134.28 20.935C134.28 21.5083 134.397 22.0217 134.63 22.475C134.863 22.935 135.18 23.295 135.58 23.555C135.98 23.8083 136.44 23.935 136.96 23.935ZM150.76 27.615H146.08V14.285H150.43L150.68 18.665L149.71 17.915C149.923 17.1817 150.26 16.5183 150.72 15.925C151.18 15.3317 151.733 14.865 152.38 14.525C153.033 14.185 153.717 14.015 154.43 14.015C154.73 14.015 155.013 14.035 155.28 14.075C155.547 14.115 155.797 14.1717 156.03 14.245L154.76 19.395C154.573 19.275 154.313 19.1683 153.98 19.075C153.647 18.9817 153.29 18.935 152.91 18.935C152.577 18.935 152.277 18.9917 152.01 19.105C151.743 19.2117 151.517 19.365 151.33 19.565C151.15 19.765 151.01 20.0017 150.91 20.275C150.81 20.5483 150.76 20.8717 150.76 21.245V27.615ZM163.31 27.615H158.66V10.915H163.31V27.615ZM165.63 18.245H156.46V14.285H165.63V18.245ZM172.21 27.865C170.823 27.865 169.607 27.6483 168.56 27.215C167.507 26.7817 166.69 26.225 166.11 25.545L168.83 23.185C169.363 23.6717 169.967 24.0317 170.64 24.265C171.32 24.4983 171.917 24.615 172.43 24.615C172.617 24.615 172.783 24.5983 172.93 24.565C173.083 24.5317 173.203 24.4783 173.29 24.405C173.383 24.3317 173.46 24.2483 173.52 24.155C173.58 24.0617 173.61 23.955 173.61 23.835C173.61 23.555 173.467 23.3383 173.18 23.185C173.033 23.1183 172.787 23.0317 172.44 22.925C172.1 22.8183 171.647 22.6983 171.08 22.565C170.38 22.385 169.757 22.165 169.21 21.905C168.657 21.645 168.19 21.3417 167.81 20.995C167.443 20.6417 167.153 20.235 166.94 19.775C166.733 19.315 166.63 18.8117 166.63 18.265C166.63 17.5983 166.78 17.0083 167.08 16.495C167.38 15.975 167.797 15.5283 168.33 15.155C168.863 14.775 169.463 14.4917 170.13 14.305C170.797 14.1117 171.48 14.015 172.18 14.015C172.967 14.015 173.703 14.095 174.39 14.255C175.083 14.415 175.733 14.6383 176.34 14.925C176.953 15.2183 177.5 15.575 177.98 15.995L175.58 18.645C175.3 18.3917 174.97 18.155 174.59 17.935C174.217 17.7217 173.83 17.545 173.43 17.405C173.03 17.2583 172.657 17.185 172.31 17.185C172.09 17.185 171.907 17.205 171.76 17.245C171.607 17.2717 171.48 17.3183 171.38 17.385C171.28 17.4583 171.207 17.5417 171.16 17.635C171.107 17.735 171.08 17.845 171.08 17.965C171.08 18.1117 171.123 18.255 171.21 18.395C171.29 18.5217 171.423 18.6283 171.61 18.715C171.757 18.795 172.01 18.8983 172.37 19.025C172.73 19.1517 173.25 19.3083 173.93 19.495C174.697 19.7083 175.363 19.9583 175.93 20.245C176.497 20.525 176.957 20.8483 177.31 21.215C177.557 21.495 177.747 21.8083 177.88 22.155C178.013 22.495 178.08 22.875 178.08 23.295C178.08 24.175 177.827 24.9617 177.32 25.655C176.813 26.3417 176.117 26.8817 175.23 27.275C174.35 27.6683 173.343 27.865 172.21 27.865Z" fill="#1C1C1C"/>
</g>
<defs>
<linearGradient id="paint0_linear_10223_871" x1="17.5" y1="0.127541" x2="17.5" y2="30.569" gradientUnits="userSpaceOnUse">
<stop stop-color="#1C1C1C"/>
<stop offset="1" stop-color="#1C1C1C"/>
</linearGradient>
<linearGradient id="paint1_linear_10223_871" x1="17.5" y1="0.127541" x2="17.5" y2="30.569" gradientUnits="userSpaceOnUse">
<stop stop-color="#1C1C1C"/>
<stop offset="1" stop-color="#1C1C1C"/>
</linearGradient>
<clipPath id="clip0_10223_871">
<rect width="178.08" height="37" fill="white"/>
</clipPath>
</defs>
</svg>
